<svg width="128" height="128" viewBox="0 0 128 128" fill="none" xmlns="http://www.w3.org/2000/svg">
<path d="M39.6104 69.7588C36.4066 69.7588 33.3232 69.2891 30.3604 68.3496C27.3975 67.4102 24.5671 65.9648 21.8691 64.0137V52.7764H27.3975L28.5898 61.0508C30.1556 62.0143 31.8538 62.7611 33.6846 63.291C35.5153 63.821 37.4906 64.0859 39.6104 64.0859C43.1995 64.0859 45.9818 63.291 47.957 61.7012C49.9323 60.0872 50.9199 57.9795 50.9199 55.3779C50.9199 52.9691 50.0286 50.9697 48.2461 49.3799C46.4635 47.79 43.2839 46.4772 38.707 45.4414C33.263 44.1888 29.1077 42.2858 26.2412 39.7324C23.3747 37.1549 21.9414 33.915 21.9414 30.0127C21.9414 27.2666 22.6641 24.8096 24.1094 22.6416C25.5788 20.4736 27.6143 18.7633 30.2158 17.5107C32.8174 16.2581 35.8525 15.6318 39.3213 15.6318C43.0068 15.6318 46.2588 16.1979 49.0771 17.3301C51.9196 18.4382 54.2562 19.7871 56.0869 21.377V31.8916H50.5586L49.3662 24.376C48.2822 23.5088 46.9333 22.7861 45.3193 22.208C43.7054 21.6299 41.7061 21.3408 39.3213 21.3408C36.262 21.3408 33.7809 22.1237 31.8779 23.6895C29.999 25.2552 29.0596 27.3268 29.0596 29.9043C29.0596 32.1686 29.9629 34.0234 31.7695 35.4688C33.5762 36.89 36.7077 38.1546 41.1641 39.2627C46.7044 40.6357 50.8958 42.6712 53.7383 45.3691C56.6048 48.043 58.0381 51.3551 58.0381 55.3057C58.0381 58.124 57.2793 60.6292 55.7617 62.8213C54.2441 64.9893 52.1003 66.6875 49.3301 67.916C46.584 69.1445 43.3441 69.7588 39.6104 69.7588ZM64.2168 69V64.4473L70.1064 63.4355V21.9912L64.2168 20.9795V16.3906H84.8125C89.4616 16.3906 93.5085 17.4987 96.9531 19.7148C100.422 21.931 103.12 24.9782 105.047 28.8564C106.974 32.7347 107.938 37.167 107.938 42.1533V43.2734C107.938 48.1393 107.01 52.5234 105.155 56.4258C103.3 60.304 100.663 63.3753 97.2422 65.6396C93.8457 67.8799 89.8229 69 85.1738 69H64.2168ZM77.2246 63.4355H84.8125C88.1367 63.4355 90.9912 62.5322 93.376 60.7256C95.7607 58.8949 97.5915 56.4619 98.8682 53.4268C100.169 50.3675 100.819 46.9831 100.819 43.2734V42.0811C100.819 38.251 100.169 34.8304 98.8682 31.8193C97.5915 28.7842 95.7607 26.3874 93.376 24.6289C90.9912 22.8704 88.1367 21.9912 84.8125 21.9912H77.2246V63.4355Z" fill="#616161"/>
<path d="M7.56055 81.7622L14.1865 79.5161C15.5342 83.5591 17.8926 86.4603 21.2617 88.2197C24.5934 89.9792 28.73 90.8589 33.6714 90.8589H45.1826C49.1882 90.8589 52.6883 91.7012 55.6831 93.3857C58.6779 95.0703 60.9801 97.672 62.5898 101.191C64.1247 97.672 66.3895 95.0703 69.3843 93.3857C72.3791 91.7012 75.9167 90.8589 79.9971 90.8589H91.5645C96.5059 90.8589 100.661 89.9792 104.03 88.2197C107.437 86.4603 109.795 83.5591 111.105 79.5161L117.675 81.7622C115.616 89.0246 112.341 94.1906 107.849 97.2603C103.394 100.367 97.9658 101.921 91.5645 101.921H79.9971C75.7669 101.921 72.4914 102.875 70.1704 104.785C67.8869 106.694 66.7451 109.651 66.7451 113.657H58.4907C58.4907 109.651 57.3115 106.694 54.9531 104.785C52.6322 102.875 49.3753 101.921 45.1826 101.921H33.6714C27.3075 101.921 21.8794 100.367 17.3872 97.2603C12.895 94.1906 9.61947 89.0246 7.56055 81.7622Z" fill="#F37726"/>
</svg>
