<svg width="388" height="100" viewBox="0 0 388 100" fill="none" xmlns="http://www.w3.org/2000/svg">
<path d="M193.265 92.5742C188.06 91.1061 184.349 88.7705 182.134 85.5674C179.945 82.3643 178.851 78.4938 178.851 73.9561V65.748C178.851 62.7585 178.17 60.4362 176.809 58.7812C175.447 57.0996 173.352 56.2588 170.522 56.2588V50.373C173.352 50.373 175.447 49.5589 176.809 47.9307C178.17 46.2757 178.851 43.9401 178.851 40.9238V32.6758C178.851 28.1113 179.945 24.2409 182.134 21.0645C184.349 17.8613 188.06 15.5257 193.265 14.0576L194.866 18.7422C191.93 19.6764 189.835 21.3581 188.58 23.7871C187.352 26.1895 186.738 29.1523 186.738 32.6758V40.9238C186.738 43.7266 186.178 46.1956 185.057 48.3311C183.936 50.4665 182.241 52.1348 179.972 53.3359C182.241 54.5638 183.936 56.2588 185.057 58.4209C186.178 60.5563 186.738 62.9987 186.738 65.748V73.9561C186.738 77.4795 187.352 80.429 188.58 82.8047C189.835 85.207 191.93 86.8887 194.866 87.8496L193.265 92.5742Z" fill="#F37726"/>
<path d="M204.401 72.564C202.038 72.564 200.006 71.9821 198.305 70.8184C196.622 69.6367 195.333 67.9985 194.438 65.9038C193.542 63.8091 193.095 61.3652 193.095 58.5723V58.0083C193.095 54.8931 193.542 52.1628 194.438 49.8174C195.333 47.472 196.631 45.6548 198.332 44.3657C200.032 43.0588 202.073 42.4053 204.455 42.4053C206.173 42.4053 207.686 42.7275 208.993 43.3721C210.318 43.9987 211.446 44.9118 212.377 46.1113V34.2681L208 33.5161V30.1055H217.667V67.8643L222.045 68.6162V72H213.075L212.646 68.5356C210.712 71.2212 207.964 72.564 204.401 72.564ZM205.744 68.2671C207.319 68.2671 208.644 67.909 209.718 67.1929C210.792 66.4767 211.679 65.4652 212.377 64.1582V50.6768C211.697 49.4593 210.81 48.4925 209.718 47.7764C208.626 47.0602 207.319 46.7021 205.797 46.7021C203.273 46.7021 201.402 47.7495 200.185 49.8442C198.985 51.939 198.385 54.6603 198.385 58.0083V58.5723C198.385 61.4906 198.985 63.8359 200.185 65.6084C201.384 67.3809 203.237 68.2671 205.744 68.2671ZM238.776 72.564C236.09 72.564 233.754 71.9552 231.767 70.7378C229.779 69.5024 228.24 67.7926 227.147 65.6084C226.073 63.4242 225.536 60.8997 225.536 58.0352V56.8535C225.536 54.0964 226.1 51.6346 227.228 49.4683C228.374 47.284 229.887 45.5653 231.767 44.312C233.664 43.0409 235.732 42.4053 237.97 42.4053C241.873 42.4053 244.827 43.5869 246.833 45.9502C248.856 48.3135 249.867 51.4645 249.867 55.4033V58.7065H231.015L230.934 58.8408C230.988 61.6338 231.695 63.9344 233.056 65.7427C234.416 67.533 236.323 68.4282 238.776 68.4282C240.566 68.4282 242.133 68.1776 243.476 67.6763C244.836 67.1571 246.009 66.4499 246.994 65.5547L249.062 68.9922C248.023 69.9948 246.645 70.8452 244.926 71.5435C243.225 72.2238 241.175 72.564 238.776 72.564ZM231.176 54.5708H244.577V53.8726C244.577 51.7957 244.022 50.0591 242.912 48.6626C241.802 47.2661 240.154 46.5679 237.97 46.5679C236.198 46.5679 234.685 47.3198 233.432 48.8237C232.178 50.3097 231.409 52.1807 231.122 54.4365L231.176 54.5708ZM265.927 72.564C263.975 72.564 262.149 72.367 260.448 71.9731C258.747 71.5793 256.939 70.9705 255.023 70.147L254.97 63.2451H258.971L259.965 67.4077C261.863 68.1955 263.85 68.5894 265.927 68.5894C268.075 68.5894 269.615 68.1776 270.546 67.354C271.477 66.5304 271.942 65.5099 271.942 64.2925C271.942 63.1466 271.468 62.1799 270.519 61.3921C269.588 60.5864 267.887 59.9061 265.417 59.3511C261.907 58.5454 259.32 57.4712 257.655 56.1284C256.008 54.7677 255.185 52.9595 255.185 50.7036C255.185 49.1281 255.641 47.7227 256.554 46.4873C257.467 45.234 258.738 44.2404 260.368 43.5063C261.997 42.7723 263.895 42.4053 266.061 42.4053C268.263 42.4053 270.143 42.6559 271.701 43.1572C273.276 43.6585 274.646 44.3299 275.81 45.1714L276.078 51.8047H272.104L271.244 47.9375C270.618 47.472 269.875 47.1139 269.015 46.8633C268.156 46.6126 267.171 46.4873 266.061 46.4873C264.414 46.4873 263.071 46.8722 262.033 47.6421C261.012 48.4119 260.502 49.3787 260.502 50.5425C260.502 51.2228 260.645 51.8136 260.932 52.3149C261.236 52.8162 261.809 53.2728 262.65 53.6846C263.492 54.0785 264.727 54.4723 266.356 54.8662C270.403 55.8151 273.222 57.0236 274.816 58.4917C276.427 59.9598 277.233 61.7681 277.233 63.9165C277.233 66.3693 276.32 68.4282 274.494 70.0933C272.685 71.7404 269.83 72.564 265.927 72.564ZM281.422 72V68.6162L285.8 67.8643V47.105L281.422 46.353V42.9424H291.09V67.8643L295.468 68.6162V72H281.422ZM285.531 35.772V30.1055H291.09V35.772H285.531ZM311.876 83.7358C310.48 83.7358 308.967 83.5389 307.338 83.145C305.709 82.769 304.276 82.2498 303.041 81.5874L304.411 77.4785C305.395 77.9977 306.559 78.4274 307.902 78.7676C309.245 79.1077 310.552 79.2778 311.823 79.2778C314.186 79.2778 315.914 78.6154 317.006 77.2905C318.116 75.9657 318.671 74.0768 318.671 71.624V68.8579C316.737 71.3286 314.079 72.564 310.695 72.564C308.332 72.564 306.291 71.9821 304.572 70.8184C302.853 69.6367 301.528 67.9985 300.597 65.9038C299.684 63.7912 299.228 61.3473 299.228 58.5723V58.0083C299.228 54.8931 299.684 52.1628 300.597 49.8174C301.528 47.472 302.853 45.6548 304.572 44.3657C306.291 43.0588 308.349 42.4053 310.749 42.4053C314.347 42.4053 317.104 43.8018 319.02 46.5947L319.503 42.9424H327.56V46.3262L323.961 47.105V71.624C323.961 75.3838 322.914 78.3379 320.819 80.4863C318.725 82.6527 315.744 83.7358 311.876 83.7358ZM312.011 68.2671C313.604 68.2671 314.938 67.909 316.012 67.1929C317.086 66.4588 317.973 65.4294 318.671 64.1045V50.7305C317.991 49.4951 317.104 48.5194 316.012 47.8032C314.92 47.0692 313.604 46.7021 312.064 46.7021C309.54 46.7021 307.651 47.7585 306.398 49.8711C305.145 51.9837 304.518 54.6961 304.518 58.0083V58.5723C304.518 61.4906 305.136 63.8359 306.371 65.6084C307.606 67.3809 309.486 68.2671 312.011 68.2671ZM330.219 72V68.6162L334.596 67.8643V47.105L330.219 46.353V42.9424H339.323L339.699 47.2661C340.666 45.7264 341.874 44.5358 343.324 43.6943C344.792 42.835 346.457 42.4053 348.319 42.4053C351.452 42.4053 353.878 43.3273 355.597 45.1714C357.316 46.9976 358.175 49.8263 358.175 53.6577V67.8643L362.553 68.6162V72H348.507V68.6162L352.885 67.8643V53.7651C352.885 51.2049 352.375 49.3877 351.354 48.3135C350.351 47.2393 348.812 46.7021 346.735 46.7021C345.213 46.7021 343.861 47.0692 342.68 47.8032C341.516 48.5373 340.585 49.5399 339.887 50.811V67.8643L344.264 68.6162V72H330.219Z" fill="#616161"/>
<path d="M13.74 71.6C9.14 71.6 6.04 70.8 4.44 69.2C3.76 68.52 3.34 67.76 3.18 66.92C3.02 66.04 2.94 64.7 2.94 62.9H4.14C4.5 64.9 5.36 66.46 6.72 67.58C8.12 68.66 10.06 69.2 12.54 69.2C14.74 69.2 16.38 68.82 17.46 68.06C18.58 67.3 19.14 66.28 19.14 65C19.14 63.84 18.7 62.84 17.82 62C16.98 61.16 15.62 60.36 13.74 59.6L10.14 58.1C7.74 57.14 5.94 56.02 4.74 54.74C3.54 53.46 2.94 51.88 2.94 50C2.94 47.56 3.86 45.66 5.7 44.3C7.54 42.9 9.92 42.2 12.84 42.2C17.24 42.2 20.24 43 21.84 44.6C22.52 45.28 22.94 46.04 23.1 46.88C23.26 47.72 23.34 49.06 23.34 50.9H22.14C21.82 48.9 20.98 47.36 19.62 46.28C18.26 45.16 16.4 44.6 14.04 44.6C12.16 44.6 10.68 45 9.6 45.8C8.56 46.56 8.04 47.56 8.04 48.8C8.04 50.88 9.64 52.58 12.84 53.9L16.44 55.4C19.16 56.52 21.14 57.72 22.38 59C23.62 60.24 24.24 61.84 24.24 63.8C24.24 66.24 23.26 68.16 21.3 69.56C19.34 70.92 16.82 71.6 13.74 71.6ZM31.9973 50C31.9973 47.96 31.7173 46.46 31.1573 45.5C30.5973 44.5 29.4773 44 27.7973 44H26.5973V42.8H31.9973C33.5173 42.8 34.6573 43.02 35.4173 43.46C36.2173 43.86 36.7773 44.54 37.0973 45.5H37.3973C38.1173 44.58 39.1373 43.8 40.4573 43.16C41.7773 42.52 43.4573 42.2 45.4973 42.2C48.9373 42.2 51.5973 43.6 53.4773 46.4C55.3573 49.16 56.2973 52.66 56.2973 56.9C56.2973 61.18 55.3173 64.7 53.3573 67.46C51.4373 70.22 48.6173 71.6 44.8973 71.6C43.3773 71.6 42.0373 71.44 40.8773 71.12C39.7173 70.8 38.5573 70.36 37.3973 69.8V82.4H31.9973V50ZM43.0973 69.2C45.6573 69.2 47.5373 68.08 48.7373 65.84C49.9773 63.6 50.5973 60.62 50.5973 56.9C50.5973 53.22 50.0173 50.26 48.8573 48.02C47.6973 45.74 45.9773 44.6 43.6973 44.6C41.0173 44.6 38.9173 45.8 37.3973 48.2V67.4C38.5973 67.96 39.6373 68.4 40.5173 68.72C41.3973 69.04 42.2573 69.2 43.0973 69.2ZM63.3825 38.6C63.3825 36.56 63.1025 35.06 62.5425 34.1C61.9825 33.1 60.8625 32.6 59.1825 32.6H57.9825V31.4H63.3825C64.8625 31.4 65.9625 31.6 66.6825 32C67.4425 32.36 67.9825 33.04 68.3025 34.04C68.6225 35.04 68.7825 36.56 68.7825 38.6V45.2C69.6225 44.36 70.7025 43.66 72.0225 43.1C73.3825 42.5 74.9025 42.2 76.5825 42.2C79.5825 42.2 82.0225 43 83.9025 44.6C85.8225 46.2 86.7825 49 86.7825 53V71H81.3825V53C81.3825 50.2 80.7425 48.16 79.4625 46.88C78.2225 45.56 76.6625 44.9 74.7825 44.9C72.6625 44.9 70.6625 45.96 68.7825 48.08V71H63.3825V38.6ZM98.3203 39.2C97.4003 39.2 96.6003 38.82 95.9203 38.06C95.2803 37.3 94.9603 36.4 94.9603 35.36C94.9603 34.52 95.2003 33.86 95.6803 33.38C96.2003 32.9 96.8803 32.66 97.7203 32.66C98.6403 32.66 99.4203 33.04 100.06 33.8C100.74 34.56 101.08 35.46 101.08 36.5C101.08 37.34 100.82 38 100.3 38.48C99.8203 38.96 99.1603 39.2 98.3203 39.2ZM96.0403 50C96.0403 47.96 95.7603 46.46 95.2003 45.5C94.6403 44.5 93.5203 44 91.8403 44H90.6403V42.8H96.0403C97.5203 42.8 98.6203 43 99.3403 43.4C100.1 43.76 100.64 44.44 100.96 45.44C101.28 46.44 101.44 47.96 101.44 50V71H96.0403V50ZM110.806 50C110.806 47.96 110.526 46.46 109.966 45.5C109.406 44.5 108.286 44 106.606 44H105.406V42.8H110.806C112.286 42.8 113.406 43 114.166 43.4C114.966 43.8 115.546 44.4 115.906 45.2H116.206C117.046 44.36 118.126 43.66 119.446 43.1C120.806 42.5 122.326 42.2 124.006 42.2C127.006 42.2 129.446 43 131.326 44.6C133.246 46.2 134.206 49 134.206 53V71H128.806V53C128.806 50.2 128.166 48.16 126.886 46.88C125.646 45.56 124.086 44.9 122.206 44.9C120.086 44.9 118.086 45.96 116.206 48.08V71H110.806V50ZM144.883 48.8C143.203 45.88 141.143 44.28 138.703 44V42.8H143.803C145.123 42.8 146.363 43.22 147.523 44.06C148.683 44.9 149.703 46.08 150.583 47.6L154.303 53.9L162.103 42.8H165.103L155.503 56.3L160.723 65C162.363 67.88 164.523 69.48 167.203 69.8V71H161.803C160.483 71 159.243 70.58 158.083 69.74C156.923 68.9 155.903 67.72 155.023 66.2L151.303 59.9L143.503 71H140.503L150.103 57.5L144.883 48.8Z" fill="#616161"/>
<path d="M360.683 92.5742L359.081 87.8496C361.964 86.8887 364.033 85.207 365.287 82.8047C366.542 80.429 367.169 77.4795 367.169 73.9561V65.748C367.169 62.8919 367.77 60.3962 368.971 58.2607C370.172 56.1253 372.027 54.4837 374.536 53.3359C372.027 52.2415 370.172 50.6266 368.971 48.4912C367.77 46.3558 367.169 43.8333 367.169 40.9238V32.6758C367.169 29.1523 366.542 26.1895 365.287 23.7871C364.033 21.3581 361.964 19.6764 359.081 18.7422L360.683 14.0576C365.861 15.5257 369.545 17.8613 371.733 21.0645C373.949 24.2409 375.057 28.1113 375.057 32.6758V40.9238C375.057 43.9401 375.737 46.2757 377.099 47.9307C378.46 49.5589 380.569 50.373 383.425 50.373V56.2588C380.569 56.2588 378.46 57.0996 377.099 58.7812C375.737 60.4362 375.057 62.7585 375.057 65.748V73.9561C375.057 78.4938 373.949 82.3643 371.733 85.5674C369.545 88.7705 365.861 91.1061 360.683 92.5742Z" fill="#F37726"/>
</svg>
